<mxfile host="65bd71144e">
    <diagram id="eOSsEB8OLsLFwF1ASAym" name="Page-1">
        <mxGraphModel dx="737" dy="648" grid="1" gridSize="10" guides="1" tooltips="1" connect="1" arrows="1" fold="1" page="1" pageScale="1" pageWidth="850" pageHeight="1100" math="0" shadow="0">
            <root>
                <mxCell id="0"/>
                <mxCell id="1" parent="0"/>
                <mxCell id="9" style="edgeStyle=none;html=1;exitX=0.5;exitY=1;exitDx=0;exitDy=0;fontSize=21;fontStyle=1;strokeWidth=2;" edge="1" parent="1" source="10" target="12">
                    <mxGeometry relative="1" as="geometry"/>
                </mxCell>
                <mxCell id="10" value="B" style="ellipse;whiteSpace=wrap;html=1;aspect=fixed;fontSize=21;fontStyle=1;strokeWidth=2;" vertex="1" parent="1">
                    <mxGeometry x="350" y="60" width="70" height="70" as="geometry"/>
                </mxCell>
                <mxCell id="11" style="edgeStyle=none;html=1;exitX=0.5;exitY=1;exitDx=0;exitDy=0;entryX=0.5;entryY=0;entryDx=0;entryDy=0;fontSize=21;fontStyle=1;strokeWidth=2;" edge="1" parent="1" source="12" target="15">
                    <mxGeometry relative="1" as="geometry"/>
                </mxCell>
                <mxCell id="12" value="sum = 0, i=0" style="rounded=0;whiteSpace=wrap;html=1;fontSize=21;fontStyle=1;strokeWidth=2;" vertex="1" parent="1">
                    <mxGeometry x="322.5" y="190" width="125" height="60" as="geometry"/>
                </mxCell>
                <mxCell id="13" style="edgeStyle=none;html=1;exitX=0.5;exitY=0;exitDx=0;exitDy=0;entryX=0.5;entryY=0;entryDx=0;entryDy=0;fontSize=21;fontStyle=1;strokeWidth=2;" edge="1" parent="1" source="16" target="15">
                    <mxGeometry relative="1" as="geometry">
                        <Array as="points">
                            <mxPoint x="615" y="300"/>
                        </Array>
                    </mxGeometry>
                </mxCell>
                <mxCell id="14" style="edgeStyle=none;html=1;exitX=1;exitY=0.5;exitDx=0;exitDy=0;entryX=0;entryY=0.5;entryDx=0;entryDy=0;fontSize=21;fontStyle=1;fillColor=#008a00;strokeColor=#005700;strokeWidth=2;" edge="1" parent="1" source="15" target="16">
                    <mxGeometry relative="1" as="geometry"/>
                </mxCell>
                <mxCell id="18" style="edgeStyle=none;html=1;exitX=0.5;exitY=1;exitDx=0;exitDy=0;entryX=0.5;entryY=0;entryDx=0;entryDy=0;fontStyle=1;fillColor=#a20025;strokeColor=#6F0000;strokeWidth=2;" edge="1" parent="1" source="15" target="17">
                    <mxGeometry relative="1" as="geometry"/>
                </mxCell>
                <mxCell id="15" value="i&amp;lt;n" style="rhombus;whiteSpace=wrap;html=1;fontSize=21;fontStyle=1;strokeWidth=2;" vertex="1" parent="1">
                    <mxGeometry x="320" y="300" width="130" height="130" as="geometry"/>
                </mxCell>
                <mxCell id="16" value="sum += arr[i], i++" style="rounded=0;whiteSpace=wrap;html=1;fontSize=21;fontStyle=1;strokeWidth=2;" vertex="1" parent="1">
                    <mxGeometry x="520" y="317.5" width="190" height="95" as="geometry"/>
                </mxCell>
                <mxCell id="29" style="edgeStyle=none;html=1;exitX=0.5;exitY=1;exitDx=0;exitDy=0;entryX=0.5;entryY=0;entryDx=0;entryDy=0;fontSize=17;fontStyle=1;strokeWidth=2;" edge="1" parent="1" source="17" target="28">
                    <mxGeometry relative="1" as="geometry"/>
                </mxCell>
                <mxCell id="17" value="&lt;font style=&quot;font-size: 21px;&quot;&gt;result =&amp;nbsp; sum / n&lt;/font&gt;" style="rounded=0;whiteSpace=wrap;html=1;fontStyle=1;strokeWidth=2;" vertex="1" parent="1">
                    <mxGeometry x="295" y="500" width="180" height="65" as="geometry"/>
                </mxCell>
                <mxCell id="21" value="E" style="ellipse;whiteSpace=wrap;html=1;aspect=fixed;fontSize=21;fontStyle=1;strokeWidth=2;" vertex="1" parent="1">
                    <mxGeometry x="345" y="757.5" width="80" height="80" as="geometry"/>
                </mxCell>
                <mxCell id="30" style="edgeStyle=none;html=1;exitX=0.5;exitY=1;exitDx=0;exitDy=0;entryX=0.5;entryY=0;entryDx=0;entryDy=0;fontSize=17;fontStyle=1;strokeWidth=2;" edge="1" parent="1" source="28" target="21">
                    <mxGeometry relative="1" as="geometry"/>
                </mxCell>
                <mxCell id="28" value="&lt;span style=&quot;font-size: 21px;&quot;&gt;hiển thị result&lt;/span&gt;" style="shape=manualInput;whiteSpace=wrap;html=1;fontSize=17;fontStyle=1;strokeWidth=2;" vertex="1" parent="1">
                    <mxGeometry x="291.25" y="620" width="187.5" height="90" as="geometry"/>
                </mxCell>
            </root>
        </mxGraphModel>
    </diagram>
</mxfile>